# xmcd CD database file
#
# Track frame offsets:
#	150
#	24877
#	41981
#	66088
#	84965
#	111838
#	144054
#	163651
#	184350
#	208322
#	227198
#	244786
#	265014
#
# Disc length: 3796 seconds
#
# Revision: 0
# Processed by: cddbd v1.5.2PL0 Copyright (c) Steve Scherf et al.
# Submitted via: CDex 1.70beta2
#
DISCID=b00ed20d
DTITLE=Neshama Carlebach - One and One
DYEAR=2008
DGENRE=Jazz
TTITLE0=One and One
TTITLE1=Sometimes
TTITLE2=Wishing Well
TTITLE3=Tightrope
TTITLE4=Step Inside
TTITLE5=The Best Thing
TTITLE6=I Just Want
TTITLE7=It's Time
TTITLE8=Finest Hour
TTITLE9=Only Now
TTITLE10=Keeper of the Flame
TTITLE11=Soulmate
TTITLE12=I Just Want (bonus track)
EXTD=YEAR: 2008
EXTT0=
EXTT1=
EXTT2=
EXTT3=
EXTT4=
EXTT5=
EXTT6=
EXTT7=
EXTT8=
EXTT9=
EXTT10=
EXTT11=
EXTT12=
PLAYORDER=
